Simulation
nRows=42
nColumns=15
endheader
time  TH_x TH_y TH_z SC_y  SC_z  SC_x  AC_y  AC_z  AC_x  GH_y  GH_z  GH_yy  EL_x  PS_y
1.9499999999999993  0.000000  0.000000  0.000000  -29.434412321029754  8.238504936730363  23.968325843847833  62.41998633427299  10.47272374711637  -2.231671965534958  48.546532756667204  61.372609201608704  -44.09399048820398  22.337200312453803  0.000000
1.9889999999999992  0.000000  0.000000  0.000000  -29.283295959851475  7.95157523386499  23.499349007324938  62.20815180084182  10.26696183350276  -2.875544336659005  49.02165082600549  60.437869979319835  -43.64935820441315  22.548528153481612  0.000000
2.027999999999999  0.000000  0.000000  0.000000  -29.087049086395965  7.6145238995848805  22.982541656836982  61.98472101374803  10.02964343608722  -3.578385202744047  49.5329276099949  59.402011229982456  -43.228958081710914  22.7534951336999  0.000000
2.0669999999999993  0.000000  0.000000  0.000000  -28.84909008310385  7.23170593484149  22.423595691161058  61.751856781925255  9.761938949725291  -4.325828287111185  50.07583024040249  58.2778201217077  -42.835828062035255  22.936707108451138  0.000000
2.1059999999999994  0.000000  0.000000  0.000000  -28.575977900943144  6.808116489212043  21.826426873393626  61.508657036836986  9.46767528093083  -5.104879401700616  50.63403320876384  57.07910368628997  -42.44052584250811  23.086060113725424  0.000000
2.144999999999999  0.000000  0.000000  0.000000  -28.27545166832178  6.349100819528426  21.191861346815383  61.25214086450963  9.153149728163672  -5.903478497108245  51.18270093208666  55.820011307791965  -41.99632330502243  23.19416297804375  0.000000
2.1839999999999993  0.000000  0.000000  0.000000  -27.95719007969314  5.859439526415377  20.517376541565927  60.97930215445131  8.826225194977342  -6.710154735518938  51.69595576917768  54.5148646379186  -41.46213002062178  23.260850264420984  0.000000
2.2229999999999994  0.000000  0.000000  0.000000  -27.633731534964788  5.34291682068219  19.796202691093963  60.68900989421273  8.495028311457931  -7.512588732198719  52.15243302413044  53.17817298922588  -40.81715934649703  23.29526029026496  0.000000
2.261999999999999  0.000000  0.000000  0.000000  -27.320110009409532  4.803565146983307  19.016724852084295  60.38240716817447  8.166596335168908  -8.294439858712067  52.53539088889445  51.82322008361477  -40.057672374561776  23.31510891681142  0.000000
2.3009999999999993  0.000000  0.000000  0.000000  -27.0323765485635  4.247960632001382  18.162571576927334  60.06288211247079  7.846461107701889  -9.031786807665211  52.82635849266654  50.45950485825374  -39.178699833552244  23.343354030154973  0.000000
2.339999999999999  0.000000  0.000000  0.000000  -26.784872226212226  3.6870585189533793  17.214365128417242  59.735409782276655  7.538867013459278  -9.691523128451179  52.996059476236645  49.089499275067084  -38.154082415580426  23.40313916957674  0.000000
2.378999999999999  0.000000  0.000000  0.000000  -26.587524446930527  3.1355610199548596  16.15318749665675  59.405954681049536  7.247694753154724  -10.234954138852933  52.999192876854  47.707343332016116  -36.92945415683392  23.51322427984272  0.000000
2.4179999999999993  0.000000  0.000000  0.000000  -26.444821368328927  2.60868086681726  14.965066895846583  59.07952667392577  6.979124622254692  -10.627014962049051  52.78049009819113  46.30069607240279  -35.43479840362045  23.68697224667521  0.000000
2.456999999999999  0.000000  0.000000  0.000000  -26.357378577353725  2.117639407533371  13.645223656598445  58.757866224394704  6.743600875557759  -10.846819372680258  52.290184179578134  44.85657690496935  -33.609395477971255  23.934471649683875  0.000000
2.495999999999999  0.000000  0.000000  0.000000  -26.324632057059507  1.6671365508454963  12.200277121141603  58.43841700948976  6.554010106657384  -10.892025843205536  51.4977296716746  43.367784599242434  -31.42318492302084  24.263409084264325  0.000000
2.5349999999999993  0.000000  0.000000  0.000000  -26.345454624075252  1.2564648582601763  10.64770875140799  58.116265853333296  6.421345950732025  -10.7767031013572  50.395731829841935  41.83650502157014  -28.884890590031304  24.6756034838072  0.000000
2.573999999999999  0.000000  0.000000  0.000000  -26.416952852090354  0.8822361139573945  9.013921074802314  57.786813963416115  6.350924331061052  -10.525457780330138  48.99780166012434  40.27269537233337  -26.039747221108858  25.161204452459334  0.000000
2.612999999999999  0.000000  0.000000  0.000000  -26.533357830426272  0.540503935076803  7.331581149094949  57.44745452385941  6.341057101831668  -10.168193459232205  47.33615196449347  38.6896950937947  -22.96328016592987  25.694999306365048  0.000000
2.6519999999999992  0.000000  0.000000  0.000000  -26.68631642408577  0.22792691038219298  5.637511651815628  57.097009414712915  6.384704967113749  -9.737204922688049  45.46110794654869  37.0984410666878  -19.752856111261252  26.238433336543736  0.000000
2.690999999999999  0.000000  0.000000  0.000000  -26.866476346814622  -0.0572835504632408  3.9710047985467285  56.73431673256943  6.472648830976473  -9.266285597928086  43.4395451550233  35.50286777578013  -16.51608437144281  26.74720280145436  0.000000
2.729999999999999  0.000000  0.000000  0.000000  -27.06514481683591  -0.3147294393359138  2.3726044083314872  56.356590199041094  6.596339718452398  -8.790262533412946  41.35076693531297  33.89791194356514  -13.357472155920801  27.180811136494935  0.000000
2.768999999999999  0.000000  0.000000  0.000000  -27.27518745635142  -0.5417793194819711  0.8826263642472513  55.959334318049834  6.748967937945023  -8.343934309343911  39.27959458069029  32.27130894714316  -10.367430053679456  27.509842162435255  0.000000
2.807999999999999  0.000000  0.000000  0.000000  -27.49065613308528  -0.7345122408894695  -0.46072788409036936  55.53795276192413  6.924317840967262  -7.959946604880794  37.30784153260625  30.608399856113188  -7.616049717318106  27.718375753108965  0.000000
2.846999999999999  0.000000  0.000000  0.000000  -27.705574921881315  -0.8893848128744218  -1.6234355482363567  55.090358751831715  7.114484531170475  -7.666033469655778  35.50453511201151  28.89752299482583  -5.15020451572224  27.802695070550993  0.000000
2.885999999999999  0.000000  0.000000  0.000000  -27.914061555758945  -1.003902814666063  -2.5775582085214896  54.61935809930249  7.307278002350661  -7.48247565316559  33.91562163251037  27.13474029971101  -2.990736104283748  27.7697586574017  0.000000
2.924999999999999  0.000000  0.000000  0.000000  -28.11102006729594  -1.0769222717524871  -3.303016102961111  54.13493718078313  7.485506131478583  -7.420356105355793  32.5540615221913  25.32652793460109  -1.1296144107293469  27.636247180021456  0.000000
2.963999999999999  0.000000  0.000000  0.000000  -28.29231785874425  -1.1101848500138731  -3.789477437930966  53.65510963749554  7.628554188432492  -7.48025044852546  31.391408900184278  23.490592156226217  0.47265275953011127  27.426992433354926  0.000000
3.002999999999999  0.000000  0.000000  0.000000  -28.454947853046843  -1.1093518168045606  -4.037444182182273  53.20588400849164  7.715492121514792  -7.652472643641473  30.356568892402603  21.654227730128888  1.8835333811233526  27.17199406489179  0.000000
3.041999999999999  0.000000  0.000000  0.000000  -28.59700293266069  -1.083132048940209  -4.060273610779723  52.818166845258844  7.729589770235833  -7.917453348213515  29.350272558457828  19.85111499676682  3.1827069490268776  26.900126310483902  0.000000
3.080999999999999  0.000000  0.000000  0.000000  -28.718441333701353  -1.0405134560691605  -3.8844461294915504  52.521189579640144  7.6610154073196215  -8.246717823745957  28.280439234588954  18.11759457903249  4.429141158579524  26.63354169708292  0.000000
3.1199999999999988  0.000000  0.000000  0.000000  -28.82170478117707  -0.9882808095764096  -3.5446376197801386  52.33166700316225  7.507909430186205  -8.608879069324844  27.114851208446257  16.488479444582353  5.617384074126832  26.385877957582075  0.000000
3.158999999999999  0.000000  0.000000  0.000000  -28.9108563980936  -0.9302519579285156  -3.0791783928472642  52.24548755764404  7.279082883344385  -8.976419450543952  25.918472294833272  14.991566623967508  6.649205370439549  26.163710487719573  0.000000
3.197999999999999  0.000000  0.000000  0.000000  -28.990652236219095  -0.8676496098106491  -2.527611705295748  52.2402149014221  6.994810400740328  -9.330583579547447  24.84340485708971  13.644606452604426  7.349264251445341  25.97109451674875  0.000000
3.2369999999999988  0.000000  0.000000  0.000000  -29.064044642681043  -0.8004621370708682  -1.9284864635222165  52.286628050504035  6.682847288567074  -9.66392458995991  24.082832300023146  12.456692578973785  7.514042687943108  25.813065056053855  0.000000
3.275999999999999  0.000000  0.000000  0.000000  -29.13033612403976  -0.7299477754317262  -1.31640055766107  52.359969200793486  6.3699520860778485  -9.974545410829327  23.79780633575913  11.431925618260355  6.986047189463666  25.69550492910805  0.000000
3.3149999999999986  0.000000  0.000000  0.000000  -29.186342209152123  -0.6608557500925308  -0.7180750071997664  52.445649576903136  6.074457513650293  -10.262255000078662  24.073393142604505  10.573407705827227  5.69680746315599  25.62279642491725  0.000000
3.3539999999999988  0.000000  0.000000  0.000000  -29.228713361684946  -0.6011943377062077  -0.1500382029203125  52.53802741685971  5.804375865572734  -10.528076908643214  24.908592428446383  9.883871903059168  3.675736877259909  25.59728347352879  0.000000
3.392999999999999  0.000000  0.000000  0.000000  -29.25734688178031  -0.5594990589426211  0.3785542669722368  52.63648014703643  5.561647277327056  -10.773920248158772  26.234180577642658  9.363793190631862  1.0302988283092256  25.619975199901223  0.000000
3.4319999999999986  0.000000  0.000000  0.000000  -29.276837542384214  -0.5413191398038  0.8625768047068416  52.740339453189385  5.3465326504210235  -11.002089442724538  27.940660809771174  9.009063409464824  -2.083531926922677  25.692096207274037  0.000000
3.4709999999999988  0.000000  0.000000  0.000000  -29.29435155323359  -0.5476213576648661  1.298985027530391  52.84765170332969  5.16009275835465  -11.214472715707016  29.899585100045236  8.809818899041112  -5.481239182095563  25.814649352727898  0.000000
3.509999999999999  0.000000  0.000000  0.000000  -29.314200269161184  -0.5747823808723674  1.6864706067567725  52.95581314632657  5.004095212124311  -11.410529048840246  31.974835073287  8.749751666779245  -8.96109306444524  25.9860579668638  0.000000
3.5489999999999986  0.000000  0.000000  0.000000  -29.334025633523748  -0.6154418207480652  2.0289174186883305  53.06457326614765  4.878152144153174  -11.586997808418507  34.027221286403766  8.805505272705782  -12.309496747446579  26.19950911968528  0.000000
